<mxfile host="app.diagrams.net" modified="2021-12-10T21:27:41.355Z" agent="5.0 (Macintosh; Intel Mac OS X 10_15_7) AppleWebKit/605.1.15 (KHTML, like Gecko) Version/15.0 Safari/605.1.15" etag="1VG6wQ1Hg9R-luXnOJ-B" version="15.9.4" type="github">
  <diagram id="C5RBs43oDa-KdzZeNtuy" name="Page-1">
    <mxGraphModel dx="1577" dy="1103" grid="1" gridSize="10" guides="1" tooltips="1" connect="1" arrows="1" fold="1" page="1" pageScale="1" pageWidth="1169" pageHeight="1654" math="0" shadow="0">
      <root>
        <mxCell id="WIyWlLk6GJQsqaUBKTNV-0" />
        <mxCell id="WIyWlLk6GJQsqaUBKTNV-1" parent="WIyWlLk6GJQsqaUBKTNV-0" />
        <mxCell id="BlZE2K9pNSNaexMbTKUI-1" style="edgeStyle=orthogonalEdgeStyle;rounded=0;orthogonalLoop=1;jettySize=auto;html=1;entryX=0.5;entryY=0;entryDx=0;entryDy=0;" parent="WIyWlLk6GJQsqaUBKTNV-1" source="3qB-yeAW9LOkjrDs_IJ0-26" target="3qB-yeAW9LOkjrDs_IJ0-30" edge="1">
          <mxGeometry relative="1" as="geometry" />
        </mxCell>
        <mxCell id="3qB-yeAW9LOkjrDs_IJ0-26" value="" style="shape=loopLimit;whiteSpace=wrap;html=1;rotation=-180;" parent="WIyWlLk6GJQsqaUBKTNV-1" vertex="1">
          <mxGeometry x="380" y="920" width="140" height="40" as="geometry" />
        </mxCell>
        <mxCell id="3qB-yeAW9LOkjrDs_IJ0-7" style="edgeStyle=orthogonalEdgeStyle;rounded=0;orthogonalLoop=1;jettySize=auto;html=1;exitX=0.5;exitY=1;exitDx=0;exitDy=0;entryX=0.5;entryY=0;entryDx=0;entryDy=0;" parent="WIyWlLk6GJQsqaUBKTNV-1" source="3qB-yeAW9LOkjrDs_IJ0-4" target="3qB-yeAW9LOkjrDs_IJ0-6" edge="1">
          <mxGeometry relative="1" as="geometry" />
        </mxCell>
        <mxCell id="3qB-yeAW9LOkjrDs_IJ0-4" value="&amp;nbsp;Начало" style="ellipse;whiteSpace=wrap;html=1;" parent="WIyWlLk6GJQsqaUBKTNV-1" vertex="1">
          <mxGeometry x="390" y="540" width="120" height="40" as="geometry" />
        </mxCell>
        <mxCell id="3qB-yeAW9LOkjrDs_IJ0-10" style="edgeStyle=orthogonalEdgeStyle;rounded=0;orthogonalLoop=1;jettySize=auto;html=1;exitX=0.5;exitY=1;exitDx=0;exitDy=0;entryX=0.498;entryY=-0.029;entryDx=0;entryDy=0;entryPerimeter=0;" parent="WIyWlLk6GJQsqaUBKTNV-1" source="3qB-yeAW9LOkjrDs_IJ0-6" target="3qB-yeAW9LOkjrDs_IJ0-8" edge="1">
          <mxGeometry relative="1" as="geometry" />
        </mxCell>
        <mxCell id="3qB-yeAW9LOkjrDs_IJ0-6" value="&lt;p style=&quot;margin: 0px ; font-stretch: normal ; line-height: normal ; font-family: &amp;#34;helvetica neue&amp;#34;&quot;&gt;int *mass, i, j, step, n, tmp;&lt;br&gt;&lt;/p&gt;" style="rounded=0;whiteSpace=wrap;html=1;align=left;" parent="WIyWlLk6GJQsqaUBKTNV-1" vertex="1">
          <mxGeometry x="395" y="600" width="110" height="40" as="geometry" />
        </mxCell>
        <mxCell id="3qB-yeAW9LOkjrDs_IJ0-13" style="edgeStyle=orthogonalEdgeStyle;rounded=0;orthogonalLoop=1;jettySize=auto;html=1;entryX=0.497;entryY=0.231;entryDx=0;entryDy=0;entryPerimeter=0;" parent="WIyWlLk6GJQsqaUBKTNV-1" source="3qB-yeAW9LOkjrDs_IJ0-8" target="3qB-yeAW9LOkjrDs_IJ0-9" edge="1">
          <mxGeometry relative="1" as="geometry" />
        </mxCell>
        <mxCell id="3qB-yeAW9LOkjrDs_IJ0-8" value="&lt;span style=&quot;font-family: &amp;#34;helvetica neue&amp;#34; ; text-align: left&quot;&gt;&amp;nbsp;printf(&quot;Введите &lt;br&gt;&amp;nbsp; &amp;nbsp; &amp;nbsp; &amp;nbsp;размер массива: &quot;);&lt;/span&gt;" style="shape=display;whiteSpace=wrap;html=1;" parent="WIyWlLk6GJQsqaUBKTNV-1" vertex="1">
          <mxGeometry x="380" y="660" width="140" height="40" as="geometry" />
        </mxCell>
        <mxCell id="3qB-yeAW9LOkjrDs_IJ0-15" style="edgeStyle=orthogonalEdgeStyle;rounded=0;orthogonalLoop=1;jettySize=auto;html=1;exitX=0.5;exitY=1;exitDx=0;exitDy=0;entryX=0.5;entryY=0;entryDx=0;entryDy=0;" parent="WIyWlLk6GJQsqaUBKTNV-1" source="3qB-yeAW9LOkjrDs_IJ0-9" target="3qB-yeAW9LOkjrDs_IJ0-14" edge="1">
          <mxGeometry relative="1" as="geometry" />
        </mxCell>
        <mxCell id="3qB-yeAW9LOkjrDs_IJ0-9" value="&lt;span style=&quot;font-family: &amp;#34;helvetica neue&amp;#34;&quot;&gt;&lt;br&gt;scanf(&quot;%d&quot;, &amp;amp;n);&lt;/span&gt;" style="shape=manualInput;whiteSpace=wrap;html=1;align=center;size=27;" parent="WIyWlLk6GJQsqaUBKTNV-1" vertex="1">
          <mxGeometry x="400" y="720" width="100" height="60" as="geometry" />
        </mxCell>
        <mxCell id="3qB-yeAW9LOkjrDs_IJ0-17" style="edgeStyle=orthogonalEdgeStyle;rounded=0;orthogonalLoop=1;jettySize=auto;html=1;exitX=0.5;exitY=1;exitDx=0;exitDy=0;entryX=0.5;entryY=0;entryDx=0;entryDy=0;" parent="WIyWlLk6GJQsqaUBKTNV-1" source="3qB-yeAW9LOkjrDs_IJ0-14" target="3qB-yeAW9LOkjrDs_IJ0-16" edge="1">
          <mxGeometry relative="1" as="geometry" />
        </mxCell>
        <mxCell id="3qB-yeAW9LOkjrDs_IJ0-14" value="&lt;p style=&quot;margin: 0px ; font-stretch: normal ; line-height: normal ; font-family: &amp;#34;helvetica neue&amp;#34;&quot;&gt;&amp;nbsp;mass = (int*)malloc(N * sizeof(int));&lt;/p&gt;" style="rounded=0;whiteSpace=wrap;html=1;" parent="WIyWlLk6GJQsqaUBKTNV-1" vertex="1">
          <mxGeometry x="390" y="800" width="120" height="40" as="geometry" />
        </mxCell>
        <mxCell id="3qB-yeAW9LOkjrDs_IJ0-29" style="edgeStyle=orthogonalEdgeStyle;rounded=0;orthogonalLoop=1;jettySize=auto;html=1;entryX=0.375;entryY=0;entryDx=0;entryDy=0;entryPerimeter=0;" parent="WIyWlLk6GJQsqaUBKTNV-1" source="3qB-yeAW9LOkjrDs_IJ0-16" target="3qB-yeAW9LOkjrDs_IJ0-27" edge="1">
          <mxGeometry relative="1" as="geometry" />
        </mxCell>
        <mxCell id="3qB-yeAW9LOkjrDs_IJ0-16" value="&lt;p style=&quot;margin: 0px ; font-stretch: normal ; line-height: normal ; font-family: &amp;#34;helvetica neue&amp;#34;&quot;&gt;for (i = 0; i&amp;lt;n; i++){&lt;/p&gt;" style="shape=loopLimit;whiteSpace=wrap;html=1;" parent="WIyWlLk6GJQsqaUBKTNV-1" vertex="1">
          <mxGeometry x="380" y="860" width="140" height="40" as="geometry" />
        </mxCell>
        <mxCell id="3qB-yeAW9LOkjrDs_IJ0-27" value="&lt;p style=&quot;margin: 0.0px 0.0px 0.0px 0.0px ; font: 12.0px &amp;#34;helvetica neue&amp;#34;&quot;&gt;&lt;span class=&quot;Apple-converted-space&quot;&gt;&amp;nbsp;&lt;/span&gt;printf(&quot;mass[%d] = &quot;, i);&lt;/p&gt;&lt;p style=&quot;margin: 0.0px 0.0px 0.0px 0.0px ; font: 12.0px &amp;#34;helvetica neue&amp;#34;&quot;&gt;scanf(&quot;%d&quot;, &amp;amp;mass[i]);&lt;/p&gt;" style="text;whiteSpace=wrap;html=1;" parent="WIyWlLk6GJQsqaUBKTNV-1" vertex="1">
          <mxGeometry x="390" y="920" width="160" height="40" as="geometry" />
        </mxCell>
        <mxCell id="3qB-yeAW9LOkjrDs_IJ0-30" value="&lt;p style=&quot;margin: 0px ; font-stretch: normal ; line-height: normal ; font-family: &amp;#34;helvetica neue&amp;#34;&quot;&gt;for (step = n / 2;&lt;/p&gt;&lt;p style=&quot;margin: 0px ; font-stretch: normal ; line-height: normal ; font-family: &amp;#34;helvetica neue&amp;#34;&quot;&gt;&amp;nbsp;step &amp;gt; 0; step /= 2){&lt;/p&gt;" style="shape=loopLimit;whiteSpace=wrap;html=1;" parent="WIyWlLk6GJQsqaUBKTNV-1" vertex="1">
          <mxGeometry x="380" y="980" width="140" height="40" as="geometry" />
        </mxCell>
        <mxCell id="YJ0zcKfJTRi40H62ncMG-10" style="edgeStyle=orthogonalEdgeStyle;rounded=0;orthogonalLoop=1;jettySize=auto;html=1;entryX=0.5;entryY=0;entryDx=0;entryDy=0;" edge="1" parent="WIyWlLk6GJQsqaUBKTNV-1" source="3qB-yeAW9LOkjrDs_IJ0-31" target="YJ0zcKfJTRi40H62ncMG-0">
          <mxGeometry relative="1" as="geometry" />
        </mxCell>
        <mxCell id="3qB-yeAW9LOkjrDs_IJ0-31" value="&lt;p style=&quot;margin: 0px ; font-stretch: normal ; line-height: normal ; font-family: &amp;#34;helvetica neue&amp;#34;&quot;&gt;for (i = step; i &amp;lt; n; i++){&lt;/p&gt;" style="shape=loopLimit;whiteSpace=wrap;html=1;" parent="WIyWlLk6GJQsqaUBKTNV-1" vertex="1">
          <mxGeometry x="380" y="1040" width="140" height="40" as="geometry" />
        </mxCell>
        <mxCell id="3qB-yeAW9LOkjrDs_IJ0-34" style="edgeStyle=orthogonalEdgeStyle;rounded=0;orthogonalLoop=1;jettySize=auto;html=1;exitX=0.5;exitY=1;exitDx=0;exitDy=0;entryX=0.5;entryY=0;entryDx=0;entryDy=0;" parent="WIyWlLk6GJQsqaUBKTNV-1" source="3qB-yeAW9LOkjrDs_IJ0-32" target="3qB-yeAW9LOkjrDs_IJ0-33" edge="1">
          <mxGeometry relative="1" as="geometry" />
        </mxCell>
        <mxCell id="3qB-yeAW9LOkjrDs_IJ0-32" value="&lt;p style=&quot;margin: 0px ; font-stretch: normal ; line-height: normal ; font-family: &amp;#34;helvetica neue&amp;#34;&quot;&gt;tmp &amp;lt; mass[j - step]&amp;nbsp;&lt;/p&gt;&lt;p style=&quot;margin: 0px ; font-stretch: normal ; line-height: normal ; font-family: &amp;#34;helvetica neue&amp;#34;&quot;&gt;&amp;amp;&amp;amp; mass[j] % 2 != 0)&lt;br&gt;&lt;/p&gt;" style="rhombus;whiteSpace=wrap;html=1;" parent="WIyWlLk6GJQsqaUBKTNV-1" vertex="1">
          <mxGeometry x="370" y="1210" width="160" height="80" as="geometry" />
        </mxCell>
        <mxCell id="YJ0zcKfJTRi40H62ncMG-6" style="edgeStyle=orthogonalEdgeStyle;rounded=0;orthogonalLoop=1;jettySize=auto;html=1;entryX=0.5;entryY=0;entryDx=0;entryDy=0;" edge="1" parent="WIyWlLk6GJQsqaUBKTNV-1" source="3qB-yeAW9LOkjrDs_IJ0-33" target="YJ0zcKfJTRi40H62ncMG-2">
          <mxGeometry relative="1" as="geometry" />
        </mxCell>
        <mxCell id="3qB-yeAW9LOkjrDs_IJ0-33" value="&lt;p style=&quot;margin: 0px ; font-stretch: normal ; line-height: normal ; font-family: &amp;#34;helvetica neue&amp;#34;&quot;&gt;mass[j] =&amp;nbsp;&lt;/p&gt;&lt;p style=&quot;margin: 0px ; font-stretch: normal ; line-height: normal ; font-family: &amp;#34;helvetica neue&amp;#34;&quot;&gt;mass[j - step];&lt;br&gt;&lt;/p&gt;" style="rounded=0;whiteSpace=wrap;html=1;" parent="WIyWlLk6GJQsqaUBKTNV-1" vertex="1">
          <mxGeometry x="400" y="1310" width="100" height="40" as="geometry" />
        </mxCell>
        <mxCell id="3qB-yeAW9LOkjrDs_IJ0-41" style="edgeStyle=orthogonalEdgeStyle;rounded=0;orthogonalLoop=1;jettySize=auto;html=1;exitX=0.5;exitY=1;exitDx=0;exitDy=0;entryX=0;entryY=0;entryDx=52.5;entryDy=0;entryPerimeter=0;" parent="WIyWlLk6GJQsqaUBKTNV-1" source="3qB-yeAW9LOkjrDs_IJ0-37" target="3qB-yeAW9LOkjrDs_IJ0-38" edge="1">
          <mxGeometry relative="1" as="geometry" />
        </mxCell>
        <mxCell id="3qB-yeAW9LOkjrDs_IJ0-37" value="&lt;p style=&quot;margin: 0px ; font-stretch: normal ; line-height: normal ; font-family: &amp;#34;helvetica neue&amp;#34;&quot;&gt;&amp;nbsp;for (int i = 0; i&amp;lt;n; i++)&lt;/p&gt;" style="shape=loopLimit;whiteSpace=wrap;html=1;" parent="WIyWlLk6GJQsqaUBKTNV-1" vertex="1">
          <mxGeometry x="390" y="1430" width="120" height="40" as="geometry" />
        </mxCell>
        <mxCell id="3qB-yeAW9LOkjrDs_IJ0-44" style="edgeStyle=orthogonalEdgeStyle;rounded=0;orthogonalLoop=1;jettySize=auto;html=1;exitX=0;exitY=0;exitDx=52.5;exitDy=40;exitPerimeter=0;entryX=0.5;entryY=0;entryDx=0;entryDy=0;" parent="WIyWlLk6GJQsqaUBKTNV-1" source="3qB-yeAW9LOkjrDs_IJ0-38" target="3qB-yeAW9LOkjrDs_IJ0-43" edge="1">
          <mxGeometry relative="1" as="geometry" />
        </mxCell>
        <mxCell id="3qB-yeAW9LOkjrDs_IJ0-38" value="&lt;p style=&quot;margin: 0px ; font-stretch: normal ; line-height: normal ; font-family: &amp;#34;helvetica neue&amp;#34;&quot;&gt;&amp;nbsp;printf(&quot;%d &quot;, mass[i]);&lt;/p&gt;" style="shape=display;whiteSpace=wrap;html=1;" parent="WIyWlLk6GJQsqaUBKTNV-1" vertex="1">
          <mxGeometry x="400" y="1490" width="100" height="40" as="geometry" />
        </mxCell>
        <mxCell id="3qB-yeAW9LOkjrDs_IJ0-43" value="Конец" style="ellipse;whiteSpace=wrap;html=1;" parent="WIyWlLk6GJQsqaUBKTNV-1" vertex="1">
          <mxGeometry x="390" y="1550" width="120" height="40" as="geometry" />
        </mxCell>
        <mxCell id="YJ0zcKfJTRi40H62ncMG-9" style="edgeStyle=orthogonalEdgeStyle;rounded=0;orthogonalLoop=1;jettySize=auto;html=1;entryX=0.5;entryY=0;entryDx=0;entryDy=0;" edge="1" parent="WIyWlLk6GJQsqaUBKTNV-1" source="YJ0zcKfJTRi40H62ncMG-0" target="YJ0zcKfJTRi40H62ncMG-1">
          <mxGeometry relative="1" as="geometry" />
        </mxCell>
        <mxCell id="YJ0zcKfJTRi40H62ncMG-0" value="&amp;nbsp;tmp = mass[i];" style="rounded=0;whiteSpace=wrap;html=1;" vertex="1" parent="WIyWlLk6GJQsqaUBKTNV-1">
          <mxGeometry x="405" y="1100" width="90" height="30" as="geometry" />
        </mxCell>
        <mxCell id="YJ0zcKfJTRi40H62ncMG-8" style="edgeStyle=orthogonalEdgeStyle;rounded=0;orthogonalLoop=1;jettySize=auto;html=1;entryX=0.5;entryY=0;entryDx=0;entryDy=0;" edge="1" parent="WIyWlLk6GJQsqaUBKTNV-1" source="YJ0zcKfJTRi40H62ncMG-1" target="3qB-yeAW9LOkjrDs_IJ0-32">
          <mxGeometry relative="1" as="geometry" />
        </mxCell>
        <mxCell id="YJ0zcKfJTRi40H62ncMG-1" value="&lt;p style=&quot;margin: 0px ; font-stretch: normal ; line-height: normal ; font-family: &amp;#34;helvetica neue&amp;#34;&quot;&gt;for (j = i; j &amp;gt;= step; j -= step){&lt;br&gt;&lt;/p&gt;" style="shape=loopLimit;whiteSpace=wrap;html=1;" vertex="1" parent="WIyWlLk6GJQsqaUBKTNV-1">
          <mxGeometry x="380" y="1150" width="140" height="40" as="geometry" />
        </mxCell>
        <mxCell id="YJ0zcKfJTRi40H62ncMG-3" style="edgeStyle=orthogonalEdgeStyle;rounded=0;orthogonalLoop=1;jettySize=auto;html=1;entryX=0.5;entryY=0;entryDx=0;entryDy=0;" edge="1" parent="WIyWlLk6GJQsqaUBKTNV-1" source="YJ0zcKfJTRi40H62ncMG-2" target="3qB-yeAW9LOkjrDs_IJ0-37">
          <mxGeometry relative="1" as="geometry" />
        </mxCell>
        <mxCell id="YJ0zcKfJTRi40H62ncMG-2" value="mass[j] = tmp;" style="rounded=0;whiteSpace=wrap;html=1;" vertex="1" parent="WIyWlLk6GJQsqaUBKTNV-1">
          <mxGeometry x="400" y="1370" width="100" height="40" as="geometry" />
        </mxCell>
      </root>
    </mxGraphModel>
  </diagram>
</mxfile>
